<svg width="94" height="94" viewBox="0 0 94 94" fill="none" xmlns="http://www.w3.org/2000/svg">
<g id="ShoppingCart">
<path id="Vector" d="M84.7193 64.4322H30.0543L32.799 58.8418L78.4037 58.7592C79.9459 58.7592 81.2678 57.6576 81.5432 56.1338L87.8588 20.7828C88.024 19.8557 87.7762 18.901 87.1703 18.1758C86.8709 17.8189 86.4974 17.5314 86.0757 17.3332C85.6541 17.1351 85.1944 17.0311 84.7285 17.0283L26.7129 16.8355L26.2172 14.5039C25.9051 13.0168 24.5648 11.9336 23.041 11.9336H8.8584C7.99898 11.9336 7.17477 12.275 6.56707 12.8827C5.95937 13.4904 5.61797 14.3146 5.61797 15.174C5.61797 16.0334 5.95937 16.8577 6.56707 17.4654C7.17477 18.0731 7.99898 18.4145 8.8584 18.4145H20.4156L22.582 28.7141L27.9154 54.5365L21.049 65.7449C20.6924 66.2262 20.4777 66.7977 20.429 67.3947C20.3803 67.9917 20.4997 68.5904 20.7736 69.1231C21.3244 70.2154 22.4352 70.9039 23.6652 70.9039H29.4301C28.2011 72.5363 27.5373 74.5245 27.5391 76.5678C27.5391 81.7635 31.7617 85.9861 36.9574 85.9861C42.1531 85.9861 46.3758 81.7635 46.3758 76.5678C46.3758 74.5207 45.6965 72.5287 44.4848 70.9039H59.2732C58.0442 72.5363 57.3804 74.5245 57.3822 76.5678C57.3822 81.7635 61.6049 85.9861 66.8006 85.9861C71.9963 85.9861 76.2189 81.7635 76.2189 76.5678C76.2189 74.5207 75.5396 72.5287 74.3279 70.9039H84.7285C86.5094 70.9039 87.9689 69.4535 87.9689 67.6635C87.9636 66.805 87.6189 65.9834 87.0102 65.3781C86.4014 64.7727 85.5779 64.4327 84.7193 64.4322V64.4322ZM28.0623 23.2246L80.9189 23.399L75.7416 52.3885L34.2219 52.4619L28.0623 23.2246ZM36.9574 79.4686C35.3602 79.4686 34.0566 78.165 34.0566 76.5678C34.0566 74.9705 35.3602 73.667 36.9574 73.667C38.5547 73.667 39.8582 74.9705 39.8582 76.5678C39.8582 77.3371 39.5526 78.0749 39.0086 78.6189C38.4646 79.1629 37.7268 79.4686 36.9574 79.4686V79.4686ZM66.8006 79.4686C65.2033 79.4686 63.8998 78.165 63.8998 76.5678C63.8998 74.9705 65.2033 73.667 66.8006 73.667C68.3978 73.667 69.7014 74.9705 69.7014 76.5678C69.7014 77.3371 69.3957 78.0749 68.8517 78.6189C68.3077 79.1629 67.5699 79.4686 66.8006 79.4686V79.4686Z" fill="#fff"/>
</g>
</svg>
